Coordinates
version=1
nRows=12
nColumns=34
inDegrees=yes

Units are S.I. units (second, meters, Newtons, ...)
If the header above contains a line with 'inDegrees', this indicates whether rotational values are in degrees (yes) or radians (no).

endheader
time	pelvis_tilt	pelvis_list	pelvis_rotation	pelvis_tx	pelvis_ty	pelvis_tz	hip_flexion_r	hip_adduction_r	hip_rotation_r	knee_angle_r	ankle_angle_r	subtalar_angle_r	mtp_angle_r	hip_flexion_l	hip_adduction_l	hip_rotation_l	knee_angle_l	ankle_angle_l	subtalar_angle_l	mtp_angle_l	lumbar_extension	lumbar_bending	lumbar_rotation	arm_flex_r	arm_add_r	arm_rot_r	elbow_flex_r	pro_sup_r	arm_flex_l	arm_add_l	arm_rot_l	elbow_flex_l	pro_sup_l
      0.00000000	      0.98630623	      1.28233070	      2.89666481	     -0.03545659	      1.25717904	     -0.11841268	     -5.12456129	     -0.78586066	     -2.22159795	      1.65933489	      8.97061506	     -6.23386981	      0.00000000	     -3.70114097	     -3.16650694	     -4.37061703	      3.13174908	      5.03363751	     -6.25214700	      0.00000000	     -6.12850866	      0.50417796	     -1.98198319	      8.20961597	     -6.76176276	     35.22213002	     22.44496964	     69.27895574	      4.40919809	     -8.64811250	     27.94776994	     26.95503770	     62.10724966
      0.01666670	      0.72774592	      1.36391035	      2.36813120	     -0.03553689	      1.25448927	     -0.11944999	     -5.11357817	     -0.67180613	     -1.16731617	      0.82450700	      9.91834736	     -6.05246060	      0.00000000	     -3.84681575	     -2.70326841	     -4.18137068	      2.53303128	      4.95379269	     -5.78746976	      0.00000000	     -5.15241911	      0.64382465	     -1.61358098	      8.28765008	     -6.96217353	     35.25111537	     22.37050530	     69.32557824	      4.39578125	     -8.53842482	     28.47331664	     27.36876687	     62.33004247
      0.03333330	     -0.45751592	      1.83164528	      1.41710317	     -0.03367074	      1.25292110	     -0.11820356	     -4.08758461	     -1.10176672	     -1.13754757	      0.28656839	      8.41883407	     -8.24727465	      0.00000000	     -2.74109628	     -2.20463461	     -5.80323460	      2.52964453	      5.59630254	     -4.42288681	      0.00000000	     -3.56388043	     -0.33690515	     -0.05521349	      7.94255239	     -7.25261406	     37.40891508	     22.71698751	     70.49387376	      5.16928071	     -9.50192219	     34.38356633	     27.31719556	     64.91039290
      0.05000000	     -0.20016510	      2.19579561	      0.75007298	     -0.03373515	      1.25645960	     -0.11591966	     -4.34326412	     -1.46425274	     -1.32439473	      0.00000000	      8.04764345	     -8.19581406	      0.00000000	     -3.86104751	     -1.74255882	     -5.95210154	      1.01692476	      4.84803633	     -5.10635546	      0.00000000	     -3.84854088	     -1.01120725	      1.16157285	      7.89032738	     -7.25660153	     38.52580457	     22.54489871	     71.29436055	      5.99533725	     -9.62988253	     36.68594243	     26.35438978	     66.29370708
      0.06666670	     -0.51863457	      2.33703146	      0.27104216	     -0.03310404	      1.25268824	     -0.11623585	     -3.94727215	     -1.63751120	     -1.23068951	      0.00000000	      8.00601676	     -8.14448131	      0.00000000	     -3.90319768	     -1.51460058	     -5.67407625	      0.38950367	      5.10666589	     -4.97569132	      0.00000000	     -3.56289159	     -1.12564768	      1.42827260	      8.04646065	     -7.19627720	     38.57995062	     22.62714459	     71.36360368	      5.81314811	     -9.55942811	     36.82779606	     26.34916173	     66.39113078
      0.08333330	     -0.52304296	      2.34764416	      0.25020818	     -0.03479014	      1.25031744	     -0.11521480	     -3.97463659	     -1.60798529	     -1.23241086	      0.00000000	      8.00651994	     -8.14631373	      0.00000000	     -3.87889841	     -1.48563187	     -5.66774218	      0.38024322	      5.10741308	     -4.97255932	      0.00000000	     -3.56103530	     -1.11763304	      1.43768377	      8.04920290	     -7.18674459	     38.58174557	     22.63033435	     71.36481926	      5.80750730	     -9.55835089	     36.82949740	     26.34791799	     66.39243765
      0.10000000	     -1.71677481	      2.44958782	     -0.38284299	     -0.03576871	      1.25237521	     -0.11386424	     -2.51291469	     -1.70870471	      0.12654051	      0.00000000	      7.76257846	     -8.97732645	      0.00000000	     -2.46338359	     -1.40769290	     -5.54809484	      0.57784848	      5.55887881	     -4.93837493	      0.00000000	     -2.00189867	     -1.16123459	      2.48513888	      7.85057287	     -6.95206192	     38.90133176	     22.43818436	     72.45573257	      5.76872550	     -9.29845210	     37.27153953	     25.64964216	     67.72261781
      0.11666670	     -1.71250937	      2.44446002	     -0.49851316	     -0.03502423	      1.25369839	     -0.11327254	     -2.44038526	     -1.67277892	      0.39268867	      0.00000000	      7.69482599	     -8.82488173	      0.00000000	     -2.37677686	     -1.45148955	     -5.39017273	      0.60112592	      5.55713394	     -4.89032331	      0.00000000	     -2.06749573	     -1.08470508	      2.58869223	      7.93852959	     -6.76185738	     38.89363876	     22.47188532	     72.48609392	      5.82295420	     -9.25013604	     37.24039000	     25.65972056	     67.75574334
      0.13333330	     -1.70949514	      2.45349445	     -0.51582705	     -0.03470508	      1.25449280	     -0.11294138	     -2.45709619	     -1.66423580	      0.40244531	      0.00000000	      7.69194408	     -8.81948954	      0.00000000	     -2.35105994	     -1.45664386	     -5.38373694	      0.59355744	      5.55887465	     -4.88925304	      0.00000000	     -2.06740674	     -1.08453752	      2.59152804	      7.93936769	     -6.76068186	     38.89169482	     22.47031612	     72.48729525	      5.82372985	     -9.24718005	     37.23743440	     25.65974075	     67.75710495
      0.15000000	     -2.43314145	      2.45302786	     -0.70821248	     -0.03463536	      1.25368145	     -0.11305562	     -1.61818675	     -1.63179827	      1.60935309	      0.00000000	      7.37351702	     -9.23890317	      0.00000000	     -1.39928768	     -1.50708991	     -5.20949268	      0.88322674	      5.54325023	     -5.63229263	      0.00000000	     -1.18998501	     -1.09212877	      2.92878180	      7.51431220	     -6.13546080	     35.13481662	     21.88413135	     74.24754792	      5.31462223	     -8.50219206	     32.64010833	     24.89501636	     70.02079223
      0.16666670	     -2.46607686	      2.44891756	     -0.71931227	     -0.03401499	      1.25409833	     -0.11387467	     -1.67208601	     -1.63402294	      1.61192807	      0.00000000	      7.36637366	     -9.23424265	      0.00000000	     -1.38496662	     -1.50657231	     -5.20808919	      0.88407282	      5.54028080	     -5.63050289	      0.00000000	     -1.18774485	     -1.09019555	      2.93881724	      7.51867877	     -6.12817336	     35.13416204	     21.88806029	     74.24957535	      5.30802807	     -8.49925434	     32.63919836	     24.89753144	     70.02312074
      0.18333330	     -2.36893684	      2.43109458	     -0.95820209	     -0.03832793	      1.25565489	     -0.11188369	     -1.69976653	     -1.58238045	      1.62099698	      0.00000000	      6.82661865	     -8.98826541	      0.00000000	     -1.41860652	     -1.53296305	     -5.83177624	      1.02787978	      5.31202641	     -5.98029674	      0.00000000	     -1.29149516	     -1.02964408	      3.36746811	      7.54763476	     -6.07015869	     34.97326846	     21.95898924	     74.39352527	      5.19513357	     -8.38892363	     32.41733212	     25.11810851	     70.20280367
